<svg xmlns="http://www.w3.org/2000/svg" viewBox="0 0 20 20"><defs><style>.a{fill:#d5b356;}.b{fill:#fff;}</style></defs><title>topad_gold_icon</title><rect class="a" width="20" height="20" rx="3"/><path class="b" d="M9.35,4.39A.7.7,0,0,1,9.74,4a.92.92,0,0,1,.52,0,.7.7,0,0,1,.39.35l1.46,2.86,3.27.45a.65.65,0,0,1,.46.26.7.7,0,0,1,.16.48.68.68,0,0,1-.21.45l-2.38,2.23L14,14.28a.63.63,0,0,1-.1.48.72.72,0,0,1-.42.3.7.7,0,0,1-.51-.07L10,13.52,7.06,15a.7.7,0,0,1-.51.07.72.72,0,0,1-.42-.3.63.63,0,0,1-.1-.48l.56-3.16L4.21,8.89A.68.68,0,0,1,4,8.44.7.7,0,0,1,4.16,8a.65.65,0,0,1,.46-.26l3.27-.45Z"/></svg>